<?xml version="1.0" standalone="no"?>
<!DOCTYPE svg PUBLIC "-//W3C//DTD SVG 20010904//EN"
 "http://www.w3.org/TR/2001/REC-SVG-20010904/DTD/svg10.dtd">
<svg version="1.0" xmlns="http://www.w3.org/2000/svg"
 width="2134.000000pt" height="1492.000000pt" viewBox="0 0 2134.000000 1492.000000"
 preserveAspectRatio="xMidYMid meet">
<metadata>
Created by potrace 1.16, written by Peter Selinger 2001-2019
</metadata>
<g transform="translate(0.000000,1492.000000) scale(0.100000,-0.100000)"
fill="#000000" stroke="none">
<path d="M10130 11839 c-445 -50 -857 -309 -1123 -707 -105 -157 -181 -338
-223 -532 -27 -121 -27 -448 0 -570 44 -204 136 -413 254 -580 86 -122 280
-316 402 -402 169 -120 372 -209 580 -254 121 -27 448 -27 570 0 327 71 638
256 862 512 482 551 512 1305 77 1895 -84 113 -253 279 -369 361 -109 78 -299
174 -416 212 -182 59 -431 86 -614 65z m279 -705 c338 -75 635 -373 717 -720
23 -97 21 -258 -5 -355 -60 -230 -239 -438 -459 -536 -204 -90 -457 -81 -665
24 -107 53 -183 108 -268 192 -88 89 -145 170 -199 284 -54 112 -71 183 -77
312 -10 222 57 396 215 566 199 213 461 295 741 233z"/>
<path d="M11807 8842 l-1027 -1027 232 -233 233 -232 553 553 c305 303 547
538 539 522 -101 -204 -697 -1450 -697 -1459 0 -14 411 -426 426 -426 6 0 344
162 750 360 l739 360 -555 -555 -555 -555 230 -230 c126 -126 234 -230 240
-230 13 0 2045 2032 2045 2045 0 14 -602 615 -617 615 -6 0 -414 -208 -907
-461 -493 -254 -898 -460 -900 -458 -2 2 203 413 456 913 l461 908 -309 309
-309 309 -1028 -1028z"/>
<path d="M7032 9127 c-127 -127 -232 -237 -232 -242 0 -6 468 -478 1040 -1050
l1040 -1040 595 595 c327 327 595 599 595 605 0 6 -104 114 -230 240 l-230
230 -363 -363 -362 -362 -810 810 -810 810 -233 -233z"/>
<path d="M6178 8085 c-221 -42 -427 -161 -609 -353 -100 -105 -165 -199 -224
-324 -69 -147 -80 -198 -80 -383 0 -154 1 -163 31 -247 94 -263 304 -468 535
-523 95 -22 288 -20 412 5 127 26 315 89 522 175 244 102 324 126 435 132 84
5 102 3 148 -17 58 -25 123 -90 147 -146 8 -20 15 -62 15 -94 0 -130 -125
-292 -288 -373 -80 -39 -91 -42 -166 -41 -103 1 -166 25 -265 100 l-74 56
-236 -236 -235 -235 53 -48 c84 -76 168 -131 276 -184 142 -69 248 -92 410
-92 167 1 283 30 440 108 142 70 256 157 386 293 173 180 290 373 340 562 30
109 32 292 5 388 -63 233 -245 445 -468 546 -281 128 -589 90 -1188 -147 -223
-88 -301 -111 -380 -111 -73 0 -109 15 -158 65 -106 109 -83 272 58 402 158
147 308 158 498 37 21 -14 29 -7 237 200 118 118 215 220 215 227 0 7 -34 40
-76 73 -86 69 -247 150 -344 175 -92 23 -277 28 -372 10z"/>
<path d="M14307 6342 l-1027 -1027 615 -615 615 -615 215 215 c118 118 215
219 215 225 0 6 -169 179 -375 385 l-375 375 197 197 198 198 342 -342 343
-343 207 208 208 207 -343 343 -342 342 182 183 183 182 377 -377 378 -378
220 220 220 220 -613 613 -612 612 -1028 -1028z"/>
<path d="M4340 6130 c-202 -37 -429 -133 -603 -257 -111 -79 -308 -277 -390
-393 -121 -172 -211 -382 -254 -595 -27 -134 -24 -414 5 -552 88 -410 345
-777 712 -1015 119 -78 214 -123 349 -168 165 -55 277 -73 456 -73 247 0 426
42 650 153 561 278 912 850 882 1441 -11 212 -60 398 -157 594 -190 381 -537
685 -930 814 -163 53 -221 62 -425 66 -157 4 -208 1 -295 -15z m415 -695 c244
-66 494 -275 609 -509 69 -139 90 -227 90 -371 0 -144 -16 -213 -78 -340 -161
-328 -529 -508 -876 -429 -369 84 -677 415 -731 786 -57 390 221 784 617 872
86 19 282 15 369 -9z"/>
<path d="M16647 5612 l-217 -217 230 -230 230 -230 -807 -807 -808 -808 243
-242 242 -243 808 808 807 807 230 -230 230 -230 220 220 220 220 -700 700
c-385 385 -702 700 -705 700 -3 0 -103 -98 -223 -218z"/>
</g>
</svg>
